<svg width="28" height="28" fill="none" xmlns="http://www.w3.org/2000/svg"><rect id="backgroundrect" width="100%" height="100%" x="0" y="0" fill="none" stroke="none"/>

<defs>
<filter id="filter0_d_39757_32715" x="0" y="0" width="28" height="28" filterUnits="userSpaceOnUse" color-interpolation-filters="sRGB">
<feFlood flood-opacity="0" result="BackgroundImageFix"/>
<feColorMatrix in="SourceAlpha" type="matrix" values="0 0 0 0 0 0 0 0 0 0 0 0 0 0 0 0 0 0 127 0" result="hardAlpha"/>
<feOffset dy="3"/>
<feGaussianBlur stdDeviation="3"/>
<feColorMatrix type="matrix" values="0 0 0 0 0 0 0 0 0 0 0 0 0 0 0 0 0 0 0.09 0"/>
<feBlend mode="normal" in2="BackgroundImageFix" result="effect1_dropShadow_39757_32715"/>
<feBlend mode="normal" in="SourceGraphic" in2="effect1_dropShadow_39757_32715" result="shape"/>
</filter>
</defs>
<g class="currentLayer" style=""><title>Layer 1</title><g id="save8" class="">
<g id="tumb__COLOR:tumbler-on" filter="url(#filter0_d_39757_32715)">
<circle cx="14" cy="13.92682933807373" r="8" fill="#2BE080" id="svg_1"/>
</g>
<path id="icon__COLOR:invisible" fill-rule="evenodd" clip-rule="evenodd" d="M14,19.92682933807373 C17.3137,19.92682933807373 20,17.24052933807373 20,13.92682933807373 C20,10.61311933807373 17.3137,7.9268293380737305 14,7.9268293380737305 C10.6863,7.9268293380737305 8,10.61311933807373 8,13.92682933807373 C8,17.24052933807373 10.6863,19.92682933807373 14,19.92682933807373 zM14,21.92682933807373 C18.4183,21.92682933807373 22,18.345129338073733 22,13.92682933807373 C22,9.508549338073731 18.4183,5.9268293380737305 14,5.9268293380737305 C9.58172,5.9268293380737305 6,9.508549338073731 6,13.92682933807373 C6,18.345129338073733 9.58172,21.92682933807373 14,21.92682933807373 z" fill="white"/>
</g></g></svg>